<svg width="20" height="20" viewBox="0 0 20 20" fill="none" xmlns="http://www.w3.org/2000/svg">
<mask id="mask0_16_32" style="mask-type:alpha" maskUnits="userSpaceOnUse" x="0" y="0" width="20" height="20">
<rect width="20" height="20" fill="#D9D9D9"/>
</mask>
<g mask="url(#mask0_16_32)">
<path d="M10 17.5C8.15282 17.5 6.58004 16.8611 5.28171 15.5833C3.98282 14.3055 3.33337 12.75 3.33337 10.9167C3.33337 10.0139 3.50699 9.16999 3.85421 8.38499C4.20143 7.60055 4.6806 6.90277 5.29171 6.29166L10 1.66666L14.7084 6.29166C15.3195 6.90277 15.7987 7.60055 16.1459 8.38499C16.4931 9.16999 16.6667 10.0139 16.6667 10.9167C16.6667 12.75 16.0175 14.3055 14.7192 15.5833C13.4203 16.8611 11.8473 17.5 10 17.5ZM5.04171 11.6667H14.9167C15.0834 10.6667 14.9895 9.81249 14.635 9.10416C14.2812 8.39582 13.9167 7.8611 13.5417 7.49999L10 3.99999L6.45837 7.49999C6.08337 7.8611 5.71532 8.39582 5.35421 9.10416C4.9931 9.81249 4.88893 10.6667 5.04171 11.6667Z" fill="#1C1B1F"/>
</g>
</svg>
