<svg width="20" height="20" viewBox="0 0 20 20" fill="none" xmlns="http://www.w3.org/2000/svg">
<mask id="mask0_36_215" style="mask-type:alpha" maskUnits="userSpaceOnUse" x="0" y="0" width="20" height="20">
<rect width="20" height="20" fill="#D9D9D9"/>
</mask>
<g mask="url(#mask0_36_215)">
<path d="M9.99998 17.5C8.15276 17.5 6.57998 16.8611 5.28165 15.5833C3.98276 14.3055 3.33331 12.75 3.33331 10.9167C3.33331 10.0139 3.50692 9.16999 3.85415 8.38499C4.20137 7.60055 4.68054 6.90277 5.29165 6.29166L9.99998 1.66666L14.7083 6.29166C15.3194 6.90277 15.7986 7.60055 16.1458 8.38499C16.493 9.16999 16.6666 10.0139 16.6666 10.9167C16.6666 12.75 16.0175 14.3055 14.7191 15.5833C13.4203 16.8611 11.8472 17.5 9.99998 17.5ZM5.04165 11.6667H14.9166C15.0833 10.6667 14.9894 9.81249 14.635 9.10416C14.2811 8.39582 13.9166 7.8611 13.5416 7.49999L9.99998 3.99999L6.45831 7.49999C6.08331 7.8611 5.71526 8.39582 5.35415 9.10416C4.99304 9.81249 4.88887 10.6667 5.04165 11.6667Z" fill="white"/>
</g>
</svg>
