<svg width="20" height="20" viewBox="0 0 20 20" fill="none" xmlns="http://www.w3.org/2000/svg">
<mask id="mask0_15_26" style="mask-type:alpha" maskUnits="userSpaceOnUse" x="0" y="0" width="20" height="20">
<rect width="20" height="20" fill="#D9D9D9"/>
</mask>
<g mask="url(#mask0_15_26)">
<path d="M11.6667 17.2708V15.5625C12.9167 15.2014 13.9236 14.5069 14.6875 13.4792C15.4514 12.4514 15.8333 11.2847 15.8333 9.97917C15.8333 8.67361 15.4514 7.50694 14.6875 6.47917C13.9236 5.45139 12.9167 4.75694 11.6667 4.39583V2.6875C13.3889 3.07639 14.7917 3.94778 15.875 5.30167C16.9583 6.65611 17.5 8.21528 17.5 9.97917C17.5 11.7431 16.9583 13.3019 15.875 14.6558C14.7917 16.0103 13.3889 16.8819 11.6667 17.2708ZM2.5 12.5V7.5H5.83333L10 3.33333V16.6667L5.83333 12.5H2.5ZM11.6667 13.3333V6.625C12.3194 6.93056 12.83 7.38889 13.1983 8C13.5661 8.61111 13.75 9.27778 13.75 10C13.75 10.7083 13.5661 11.3644 13.1983 11.9683C12.83 12.5728 12.3194 13.0278 11.6667 13.3333Z" fill="#1C1B1F"/>
</g>
</svg>
