  <svg width="16  " height="16" viewBox="0 0 16 16" fill="none" xmlns="http://www.w3.org/2000/svg">
<path d="M4.47461 13C4.2793 13 4.09212 12.9609 3.91309 12.8828C3.73405 12.8014 3.57617 12.694 3.43945 12.5605C3.30599 12.4238 3.19857 12.266 3.11719 12.0869C3.03906 11.9079 3 11.7207 3 11.5254V4.47461C3 4.2793 3.03906 4.09212 3.11719 3.91309C3.19857 3.73405 3.30599 3.5778 3.43945 3.44434C3.57617 3.30762 3.73405 3.2002 3.91309 3.12207C4.09212 3.04069 4.2793 3 4.47461 3H11.5254C11.7207 3 11.9079 3.04069 12.0869 3.12207C12.266 3.2002 12.4222 3.30762 12.5557 3.44434C12.6924 3.5778 12.7998 3.73405 12.8779 3.91309C12.9593 4.09212 13 4.2793 13 4.47461V11.5254C13 11.7207 12.9593 11.9079 12.8779 12.0869C12.7998 12.266 12.6924 12.4238 12.5557 12.5605C12.4222 12.694 12.266 12.8014 12.0869 12.8828C11.9079 12.9609 11.7207 13 11.5254 13H4.47461ZM11.501 11.999C11.5693 11.999 11.6328 11.986 11.6914 11.96C11.7533 11.9339 11.807 11.8981 11.8525 11.8525C11.8981 11.807 11.9339 11.7549 11.96 11.6963C11.986 11.6344 11.999 11.5693 11.999 11.501V4.49902C11.999 4.43066 11.986 4.36719 11.96 4.30859C11.9339 4.24674 11.8981 4.19303 11.8525 4.14746C11.807 4.10189 11.7533 4.06608 11.6914 4.04004C11.6328 4.014 11.5693 4.00098 11.501 4.00098H4.49902C4.43066 4.00098 4.36556 4.014 4.30371 4.04004C4.24512 4.06608 4.19303 4.10189 4.14746 4.14746C4.10189 4.19303 4.06608 4.24674 4.04004 4.30859C4.014 4.36719 4.00098 4.43066 4.00098 4.49902V11.501C4.00098 11.5693 4.014 11.6344 4.04004 11.6963C4.06608 11.7549 4.10189 11.807 4.14746 11.8525C4.19303 11.8981 4.24512 11.9339 4.30371 11.96C4.36556 11.986 4.43066 11.999 4.49902 11.999H11.501Z" fill="white"/>
</svg>
