<svg width="16" height="16" viewBox="0 0 16 16" fill="none" xmlns="http://www.w3.org/2000/svg">
<path d="M3.49805 8.00098C3.42969 8.00098 3.36458 7.98796 3.30273 7.96191C3.24414 7.93587 3.19206 7.90007 3.14648 7.85449C3.10091 7.80892 3.0651 7.75684 3.03906 7.69824C3.01302 7.63639 3 7.57129 3 7.50293C3 7.43457 3.01302 7.37109 3.03906 7.3125C3.0651 7.25065 3.10091 7.19694 3.14648 7.15137C3.19206 7.10254 3.24414 7.0651 3.30273 7.03906C3.36458 7.01302 3.42969 7 3.49805 7H12.502C12.5703 7 12.6338 7.01302 12.6924 7.03906C12.7542 7.0651 12.8079 7.10254 12.8535 7.15137C12.8991 7.19694 12.9349 7.25065 12.9609 7.3125C12.987 7.37109 13 7.43457 13 7.50293C13 7.57129 12.987 7.63639 12.9609 7.69824C12.9349 7.75684 12.8991 7.80892 12.8535 7.85449C12.8079 7.90007 12.7542 7.93587 12.6924 7.96191C12.6338 7.98796 12.5703 8.00098 12.502 8.00098H3.49805Z" fill="white"/>
</svg>
