<svg width="110" height="28" viewBox="0 0 110 28" fill="none" xmlns="http://www.w3.org/2000/svg">
<path d="M8.89999 27.4145H12.9C14.3 27.4145 15.5 26.2145 15.5 24.8145V24.3145C15.5 22.9145 14.3 21.7145 12.9 21.7145H8.89999C7.59999 21.7145 6.49999 20.6145 6.49999 19.3145V3.21447C6.49999 1.81447 5.29999 0.614471 3.89999 0.614471H3.39999C1.99999 0.614471 0.799988 1.81447 0.799988 3.21447V19.3145C0.799988 23.8145 4.49999 27.4145 8.89999 27.4145ZM59.1 6.31447H61.8V9.31447V18.8145V24.7145C61.8 26.1145 63 27.3145 64.4 27.3145H64.9C66.3 27.3145 67.5 26.1145 67.5 24.7145V18.7145V9.31447V6.31447H70.2C71.6 6.31447 72.8 5.11447 72.8 3.71447V3.21447C72.8 1.81447 71.6 0.614471 70.2 0.614471H65.4H64.6H59C57.6 0.614471 56.4 1.81447 56.4 3.21447V3.71447C56.5 5.11447 57.7 6.31447 59.1 6.31447ZM77.6 27.4145C77.8 27.4145 77.9 27.4145 78.1 27.4145H78.6H83.7H84.5H88.6C90 27.4145 91.2 26.2145 91.2 24.8145V24.3145C91.2 22.9145 90 21.7145 88.6 21.7145H84.5H83.7H81.2V18.8145V16.9145H83.7H84.5H86.9C88.3 16.9145 89.5 15.7145 89.5 14.3145V13.8145C89.5 12.4145 88.3 11.2145 86.9 11.2145H84.5H83.7H81.2V9.21447V6.31447H83.7H84.5H88.6C90 6.31447 91.2 5.11447 91.2 3.71447V3.21447C91.2 1.81447 90 0.614471 88.6 0.614471H84.5H83.7H78.6H78.1C76.7 0.614471 75.5 1.81447 75.5 3.21447V3.71447V9.21447V13.7145V14.2145V18.7145V24.2145V24.7145C75.5 26.1145 76.4 27.1145 77.6 27.4145ZM21.5 27.4145H22C23.4 27.4145 24.6 26.2145 24.6 24.8145V20.3145H29.4V24.8145C29.4 26.2145 30.6 27.4145 32 27.4145H32.5C33.9 27.4145 35.1 26.2145 35.1 24.8145V8.71447C35.1 4.01447 31.1 0.214471 26.3 0.614471C22.1 0.914471 18.8 4.61447 18.8 8.81447V24.7145C18.9 26.2145 20 27.4145 21.5 27.4145ZM24.6 8.81447C24.6 7.61447 25.4 6.51447 26.6 6.41447C28.1 6.21447 29.4 7.31447 29.4 8.81447V14.6145H24.6V8.81447ZM47.2 6.31447H51.2C52.6 6.31447 53.8 5.11447 53.8 3.71447V3.21447C53.8 1.81447 52.6 0.614471 51.2 0.614471H47.2C42.7 0.614471 39.1 4.31447 39.1 8.71447V24.8145C39.1 26.2145 40.3 27.4145 41.7 27.4145H42.2C43.6 27.4145 44.8 26.2145 44.8 24.8145V17.6145H47.3H48.1H51.3C52.7 17.6145 53.9 16.4145 53.9 15.0145V14.5145C53.9 13.1145 52.7 11.9145 51.3 11.9145H48.1H47.3H44.8V8.71447C44.8 7.41447 45.9 6.31447 47.2 6.31447ZM102.6 27.4145H106.6C108 27.4145 109.2 26.2145 109.2 24.8145V24.3145C109.2 22.9145 108 21.7145 106.6 21.7145H102.6C101.3 21.7145 100.2 20.6145 100.2 19.3145V3.21447C100.2 1.81447 99 0.614471 97.6 0.614471H97.1C95.7 0.614471 94.5 1.81447 94.5 3.21447V19.3145C94.5 23.8145 98.1 27.4145 102.6 27.4145Z" fill="white"/>
</svg>
