<svg width="64" height="64" viewBox="0 0 64 64" fill="none" xmlns="http://www.w3.org/2000/svg">
<path d="M62.603 16.596C62.2348 15.2386 61.5179 14.0012 60.5233 13.0067C59.5288 12.0121 58.2914 11.2952 56.934 10.927C51.964 9.57 31.96 9.57 31.96 9.57C31.96 9.57 11.955 9.61 6.984 10.967C5.6266 11.3352 4.38916 12.0521 3.39465 13.0467C2.40014 14.0412 1.68318 15.2786 1.315 16.636C0 21.607 0 32 0 32C0 32 0 42.393 1.356 47.404C1.72418 48.7614 2.44114 49.9988 3.43565 50.9933C4.43016 51.9879 5.6676 52.7048 7.025 53.073C11.995 54.43 32 54.43 32 54.43C32 54.43 52.005 54.43 56.976 53.074C58.3334 52.7058 59.5708 51.9889 60.5653 50.9943C61.5599 49.9998 62.2768 48.7624 62.645 47.405C64 42.434 64 32 64 32C64 32 63.96 21.607 62.603 16.596Z" fill="white"/>
<path d="M25.592 41.612L42.187 32L25.591 22.388L25.592 41.612Z" fill="#FF0000"/>
</svg>
